<svg xmlns="http://www.w3.org/2000/svg" xmlns:xlink="http://www.w3.org/1999/xlink" width="460" zoomAndPan="magnify" viewBox="0 0 345 102.749999" height="137" preserveAspectRatio="xMidYMid meet" version="1.0"><defs><g/><clipPath id="8d8429c86e"><path d="M 1 24.847656 L 34 24.847656 L 34 73.476562 L 1 73.476562 Z M 1 24.847656 " clip-rule="nonzero"/></clipPath><clipPath id="20b791e081"><path d="M 29 24.847656 L 61.019531 24.847656 L 61.019531 73.476562 L 29 73.476562 Z M 29 24.847656 " clip-rule="nonzero"/></clipPath></defs><g clip-path="url(#8d8429c86e)"><path fill="#fcdd05" d="M 8.800781 73.152344 L 8.492188 73.15625 C 7.863281 73.167969 7.246094 73.085938 6.640625 72.914062 C 6.035156 72.742188 5.464844 72.488281 4.933594 72.148438 C 4.402344 71.8125 3.929688 71.40625 3.515625 70.929688 C 3.101562 70.457031 2.765625 69.929688 2.507812 69.359375 C 2.246094 68.785156 2.074219 68.183594 1.988281 67.5625 C 1.902344 66.9375 1.910156 66.3125 2.003906 65.691406 C 2.101562 65.070312 2.285156 64.472656 2.554688 63.90625 C 2.828125 63.335938 3.171875 62.816406 3.59375 62.351562 L 12.394531 52.585938 C 12.667969 52.28125 12.914062 51.953125 13.125 51.601562 C 13.339844 51.25 13.515625 50.882812 13.660156 50.496094 C 13.800781 50.109375 13.90625 49.714844 13.972656 49.308594 C 14.039062 48.902344 14.066406 48.496094 14.058594 48.085938 C 14.046875 47.675781 13.996094 47.269531 13.910156 46.867188 C 13.820312 46.464844 13.695312 46.074219 13.535156 45.699219 C 13.371094 45.320312 13.175781 44.960938 12.945312 44.621094 C 12.714844 44.28125 12.453125 43.964844 12.164062 43.675781 L 4.472656 35.984375 C 0.429688 31.941406 3.230469 25.023438 8.949219 24.933594 C 9.792969 24.921875 10.605469 25.066406 11.394531 25.371094 C 12.179688 25.675781 12.882812 26.121094 13.496094 26.699219 L 31.566406 43.761719 C 31.882812 44.0625 32.164062 44.386719 32.414062 44.742188 C 32.664062 45.097656 32.878906 45.476562 33.050781 45.871094 C 33.226562 46.269531 33.359375 46.683594 33.449219 47.105469 C 33.542969 47.53125 33.589844 47.960938 33.59375 48.394531 C 33.601562 48.828125 33.5625 49.261719 33.480469 49.6875 C 33.398438 50.113281 33.273438 50.527344 33.109375 50.929688 C 32.945312 51.332031 32.742188 51.710938 32.5 52.074219 C 32.257812 52.433594 31.984375 52.765625 31.675781 53.074219 L 13.261719 71.28125 C 12.667969 71.871094 11.984375 72.328125 11.214844 72.652344 C 10.441406 72.972656 9.636719 73.140625 8.800781 73.152344 Z M 8.800781 73.152344 " fill-opacity="1" fill-rule="nonzero"/></g><g clip-path="url(#20b791e081)"><path fill="#fcdd05" d="M 36.378906 73.152344 L 36.074219 73.15625 C 35.441406 73.167969 34.824219 73.085938 34.21875 72.914062 C 33.613281 72.742188 33.042969 72.488281 32.511719 72.148438 C 31.980469 71.8125 31.507812 71.40625 31.09375 70.929688 C 30.683594 70.457031 30.347656 69.929688 30.085938 69.359375 C 29.824219 68.785156 29.652344 68.183594 29.566406 67.5625 C 29.484375 66.9375 29.488281 66.3125 29.585938 65.691406 C 29.683594 65.070312 29.863281 64.472656 30.136719 63.90625 C 30.40625 63.335938 30.75 62.816406 31.171875 62.351562 L 39.972656 52.585938 C 40.25 52.28125 40.492188 51.953125 40.707031 51.601562 C 40.917969 51.25 41.09375 50.882812 41.238281 50.496094 C 41.378906 50.109375 41.484375 49.714844 41.550781 49.308594 C 41.617188 48.902344 41.648438 48.496094 41.636719 48.085938 C 41.625 47.675781 41.578125 47.269531 41.488281 46.867188 C 41.402344 46.464844 41.277344 46.074219 41.113281 45.699219 C 40.953125 45.320312 40.753906 44.960938 40.523438 44.621094 C 40.292969 44.28125 40.035156 43.964844 39.742188 43.675781 L 32.050781 35.984375 C 28.007812 31.941406 30.808594 25.023438 36.527344 24.933594 C 37.371094 24.921875 38.183594 25.066406 38.972656 25.371094 C 39.757812 25.675781 40.457031 26.121094 41.070312 26.699219 L 59.144531 43.761719 C 59.460938 44.0625 59.742188 44.386719 59.992188 44.742188 C 60.242188 45.097656 60.457031 45.476562 60.628906 45.875 C 60.804688 46.269531 60.9375 46.683594 61.027344 47.105469 C 61.121094 47.53125 61.167969 47.960938 61.171875 48.394531 C 61.179688 48.828125 61.140625 49.261719 61.058594 49.6875 C 60.976562 50.113281 60.851562 50.527344 60.6875 50.929688 C 60.523438 51.332031 60.320312 51.710938 60.078125 52.074219 C 59.835938 52.433594 59.5625 52.769531 59.253906 53.074219 L 40.84375 71.285156 C 40.246094 71.871094 39.5625 72.328125 38.792969 72.652344 C 38.019531 72.972656 37.21875 73.140625 36.378906 73.152344 Z M 36.378906 73.152344 " fill-opacity="1" fill-rule="nonzero"/></g><g fill="#fcdd05" fill-opacity="1"><g transform="translate(64.654882, 72.999262)"><g><path d="M 4.875 -15.640625 C 5.6875 -15.003906 7.082031 -14.128906 9.0625 -13.015625 C 11.050781 -11.898438 12.953125 -11.34375 14.765625 -11.34375 C 16.585938 -11.34375 17.5 -12.050781 17.5 -13.46875 C 17.5 -14.101562 17.242188 -14.664062 16.734375 -15.15625 C 16.222656 -15.65625 15.28125 -16.222656 13.90625 -16.859375 C 12.539062 -17.503906 11.515625 -18.003906 10.828125 -18.359375 C 10.148438 -18.722656 9.242188 -19.320312 8.109375 -20.15625 C 6.972656 -20.988281 6.109375 -21.859375 5.515625 -22.765625 C 3.804688 -25.191406 2.953125 -28.285156 2.953125 -32.046875 C 2.953125 -35.816406 4.347656 -38.992188 7.140625 -41.578125 C 9.941406 -44.160156 13.609375 -45.453125 18.140625 -45.453125 C 21.222656 -45.453125 24.066406 -45.117188 26.671875 -44.453125 C 29.273438 -43.796875 30.617188 -42.929688 30.703125 -41.859375 C 30.703125 -41.734375 30.703125 -41.609375 30.703125 -41.484375 C 30.703125 -39.984375 30.234375 -38.085938 29.296875 -35.796875 C 28.359375 -33.515625 27.695312 -32.242188 27.3125 -31.984375 C 24.570312 -33.398438 22.125 -34.109375 19.96875 -34.109375 C 17.8125 -34.109375 16.734375 -33.335938 16.734375 -31.796875 C 16.734375 -30.859375 17.523438 -30.023438 19.109375 -29.296875 C 19.453125 -29.128906 19.941406 -28.894531 20.578125 -28.59375 C 21.222656 -28.289062 21.960938 -27.9375 22.796875 -27.53125 C 23.628906 -27.125 24.523438 -26.609375 25.484375 -25.984375 C 26.441406 -25.367188 27.476562 -24.550781 28.59375 -23.53125 C 30.851562 -21.394531 31.984375 -18.570312 31.984375 -15.0625 C 31.984375 -10.488281 30.722656 -6.75 28.203125 -3.84375 C 25.679688 -0.9375 21.796875 0.554688 16.546875 0.640625 C 13.972656 0.640625 11.648438 0.425781 9.578125 0 C 7.503906 -0.425781 5.695312 -1.257812 4.15625 -2.5 C 2.625 -3.738281 1.859375 -5.234375 1.859375 -6.984375 C 1.859375 -8.734375 2.175781 -10.472656 2.8125 -12.203125 C 3.457031 -13.941406 4.144531 -15.085938 4.875 -15.640625 Z M 4.875 -15.640625 "/></g></g></g><g fill="#fcdd05" fill-opacity="1"><g transform="translate(101.45391, 72.999262)"><g><path d="M 33.34375 0.125 C 29.625 0.125 27.613281 -0.472656 27.3125 -1.671875 L 25.1875 -9.9375 L 15 -9.9375 L 13.140625 -1.984375 C 12.878906 -0.660156 10.828125 0 6.984375 0 C 4.929688 0 3.414062 -0.113281 2.4375 -0.34375 C 1.457031 -0.582031 0.96875 -0.765625 0.96875 -0.890625 L 12.3125 -44.296875 C 12.3125 -44.640625 15.238281 -44.8125 21.09375 -44.8125 C 26.945312 -44.8125 29.875 -44.640625 29.875 -44.296875 L 40.96875 -0.828125 C 40.96875 -0.535156 39.984375 -0.300781 38.015625 -0.125 C 36.046875 0.0390625 34.488281 0.125 33.34375 0.125 Z M 16.609375 -18.078125 L 23.328125 -18.078125 L 20.453125 -31.34375 L 20.0625 -31.34375 Z M 16.609375 -18.078125 "/></g></g></g><g fill="#fcdd05" fill-opacity="1"><g transform="translate(146.202517, 72.999262)"><g><path d="M 15.453125 -0.890625 C 15.453125 -0.210938 13.421875 0.125 9.359375 0.125 C 5.253906 0.125 3.203125 -0.191406 3.203125 -0.828125 L 3.203125 -42.625 C 3.203125 -44.125 3.992188 -44.875 5.578125 -44.875 L 17.828125 -44.875 C 29.066406 -44.875 34.6875 -40.492188 34.6875 -31.734375 C 34.6875 -29.085938 34.171875 -26.679688 33.140625 -24.515625 C 32.117188 -22.359375 30.664062 -20.640625 28.78125 -19.359375 L 36.859375 -5.890625 C 36.515625 -4.867188 35.40625 -3.695312 33.53125 -2.375 C 30.96875 -0.53125 28.851562 0.390625 27.1875 0.390625 C 25.519531 0.390625 24.28125 -0.207031 23.46875 -1.40625 L 17.4375 -15.453125 L 15.453125 -15.453125 Z M 15.453125 -33.53125 L 15.453125 -23.90625 L 15.765625 -23.90625 C 19.828125 -23.90625 21.859375 -25.597656 21.859375 -28.984375 C 21.859375 -30.515625 21.460938 -31.65625 20.671875 -32.40625 C 19.878906 -33.15625 18.585938 -33.53125 16.796875 -33.53125 Z M 15.453125 -33.53125 "/></g></g></g><g fill="#fcdd05" fill-opacity="1"><g transform="translate(186.784009, 72.999262)"><g><path d="M 22.5 -1.03125 C 22.5 -0.175781 20.382812 0.25 16.15625 0.25 C 11.925781 0.25 9.8125 -0.175781 9.8125 -1.03125 L 9.8125 -33.203125 L 2.109375 -33.203125 C 1.390625 -33.203125 0.878906 -34.1875 0.578125 -36.15625 C 0.453125 -37.09375 0.390625 -38.050781 0.390625 -39.03125 C 0.390625 -40.019531 0.453125 -40.984375 0.578125 -41.921875 C 0.878906 -43.890625 1.390625 -44.875 2.109375 -44.875 L 30 -44.875 C 30.726562 -44.875 31.242188 -43.890625 31.546875 -41.921875 C 31.671875 -40.984375 31.734375 -40.019531 31.734375 -39.03125 C 31.734375 -38.050781 31.671875 -37.09375 31.546875 -36.15625 C 31.242188 -34.1875 30.726562 -33.203125 30 -33.203125 L 22.5 -33.203125 Z M 22.5 -1.03125 "/></g></g></g><g fill="#fcdd05" fill-opacity="1"><g transform="translate(221.723856, 72.999262)"><g><path d="M 22.5 -1.03125 C 22.5 -0.175781 20.382812 0.25 16.15625 0.25 C 11.925781 0.25 9.8125 -0.175781 9.8125 -1.03125 L 9.8125 -33.203125 L 2.109375 -33.203125 C 1.390625 -33.203125 0.878906 -34.1875 0.578125 -36.15625 C 0.453125 -37.09375 0.390625 -38.050781 0.390625 -39.03125 C 0.390625 -40.019531 0.453125 -40.984375 0.578125 -41.921875 C 0.878906 -43.890625 1.390625 -44.875 2.109375 -44.875 L 30 -44.875 C 30.726562 -44.875 31.242188 -43.890625 31.546875 -41.921875 C 31.671875 -40.984375 31.734375 -40.019531 31.734375 -39.03125 C 31.734375 -38.050781 31.671875 -37.09375 31.546875 -36.15625 C 31.242188 -34.1875 30.726562 -33.203125 30 -33.203125 L 22.5 -33.203125 Z M 22.5 -1.03125 "/></g></g></g><g fill="#fcdd05" fill-opacity="1"><g transform="translate(256.663703, 72.999262)"><g><path d="M 38.078125 -1.09375 C 38.078125 -0.363281 35.914062 0 31.59375 0 C 27.28125 0 25.125 -0.363281 25.125 -1.09375 L 25.125 -15.828125 L 16.15625 -15.828125 L 16.15625 -1.09375 C 16.15625 -0.363281 13.992188 0 9.671875 0 C 5.359375 0 3.203125 -0.363281 3.203125 -1.09375 L 3.203125 -43.59375 C 3.203125 -44.488281 5.359375 -44.9375 9.671875 -44.9375 C 13.992188 -44.9375 16.15625 -44.488281 16.15625 -43.59375 L 16.15625 -28.53125 L 25.125 -28.53125 L 25.125 -43.46875 C 25.125 -44.0625 26.195312 -44.488281 28.34375 -44.75 C 29.445312 -44.832031 30.535156 -44.875 31.609375 -44.875 L 34.875 -44.75 C 37.007812 -44.488281 38.078125 -44.0625 38.078125 -43.46875 Z M 38.078125 -1.09375 "/></g></g></g><g fill="#fcdd05" fill-opacity="1"><g transform="translate(300.70709, 72.999262)"><g><path d="M 7.4375 -11.03125 L 7.4375 -33.84375 L 2.890625 -33.84375 C 2.160156 -33.84375 1.644531 -34.765625 1.34375 -36.609375 C 1.21875 -37.503906 1.15625 -38.421875 1.15625 -39.359375 C 1.15625 -40.304688 1.21875 -41.226562 1.34375 -42.125 C 1.644531 -43.957031 2.160156 -44.875 2.890625 -44.875 L 24.421875 -44.875 C 25.148438 -44.875 25.644531 -43.957031 25.90625 -42.125 C 26.070312 -41.226562 26.15625 -40.304688 26.15625 -39.359375 C 26.15625 -38.421875 26.070312 -37.503906 25.90625 -36.609375 C 25.644531 -34.765625 25.148438 -33.84375 24.421875 -33.84375 L 20.125 -33.84375 L 20.125 -11.03125 L 24.625 -11.03125 C 25.34375 -11.03125 25.851562 -10.109375 26.15625 -8.265625 C 26.320312 -7.367188 26.40625 -6.453125 26.40625 -5.515625 C 26.40625 -4.578125 26.320312 -3.65625 26.15625 -2.75 C 25.851562 -0.914062 25.34375 0 24.625 0 L 3.015625 0 C 2.285156 0 1.789062 -0.914062 1.53125 -2.75 C 1.363281 -3.65625 1.28125 -4.578125 1.28125 -5.515625 C 1.28125 -6.453125 1.363281 -7.367188 1.53125 -8.265625 C 1.789062 -10.109375 2.285156 -11.03125 3.015625 -11.03125 Z M 7.4375 -11.03125 "/></g></g></g></svg>