<svg xmlns="http://www.w3.org/2000/svg" xmlns:xlink="http://www.w3.org/1999/xlink" width="500" zoomAndPan="magnify" viewBox="0 0 375 374.999991" height="500" preserveAspectRatio="xMidYMid meet" version="1.0"><defs><g/><clipPath id="c38cdaeb04"><path d="M 27 157.042969 L 59 157.042969 L 59 205.792969 L 27 205.792969 Z M 27 157.042969 " clip-rule="nonzero"/></clipPath><clipPath id="ea3d172bdf"><path d="M 54 157.042969 L 86.382812 157.042969 L 86.382812 205.792969 L 54 205.792969 Z M 54 157.042969 " clip-rule="nonzero"/></clipPath></defs><g clip-path="url(#c38cdaeb04)"><path fill="#fcdd05" d="M 34.035156 205.464844 L 33.726562 205.46875 C 33.097656 205.480469 32.476562 205.398438 31.871094 205.226562 C 31.261719 205.054688 30.691406 204.796875 30.160156 204.460938 C 29.625 204.121094 29.152344 203.714844 28.738281 203.238281 C 28.324219 202.761719 27.988281 202.234375 27.726562 201.660156 C 27.464844 201.085938 27.292969 200.484375 27.207031 199.859375 C 27.121094 199.234375 27.128906 198.609375 27.222656 197.984375 C 27.320312 197.363281 27.503906 196.765625 27.777344 196.195312 C 28.046875 195.625 28.394531 195.105469 28.816406 194.636719 L 37.636719 184.847656 C 37.914062 184.542969 38.160156 184.214844 38.371094 183.863281 C 38.585938 183.507812 38.761719 183.140625 38.90625 182.753906 C 39.046875 182.367188 39.152344 181.96875 39.21875 181.5625 C 39.289062 181.15625 39.316406 180.75 39.304688 180.335938 C 39.292969 179.925781 39.246094 179.515625 39.15625 179.113281 C 39.070312 178.710938 38.945312 178.320312 38.78125 177.945312 C 38.617188 177.566406 38.421875 177.207031 38.191406 176.863281 C 37.960938 176.523438 37.699219 176.207031 37.40625 175.914062 L 29.695312 168.207031 C 25.644531 164.152344 28.449219 157.21875 34.183594 157.128906 C 35.03125 157.113281 35.847656 157.261719 36.636719 157.566406 C 37.425781 157.875 38.128906 158.316406 38.742188 158.898438 L 56.855469 176.003906 C 57.171875 176.304688 57.457031 176.628906 57.707031 176.988281 C 57.957031 177.34375 58.171875 177.71875 58.347656 178.117188 C 58.519531 178.519531 58.652344 178.929688 58.746094 179.355469 C 58.835938 179.78125 58.886719 180.210938 58.890625 180.648438 C 58.894531 181.082031 58.859375 181.515625 58.777344 181.941406 C 58.695312 182.371094 58.570312 182.785156 58.40625 183.1875 C 58.238281 183.589844 58.035156 183.972656 57.792969 184.335938 C 57.550781 184.695312 57.273438 185.03125 56.964844 185.335938 L 38.511719 203.589844 C 37.914062 204.179688 37.230469 204.636719 36.453125 204.960938 C 35.679688 205.285156 34.875 205.453125 34.035156 205.464844 Z M 34.035156 205.464844 " fill-opacity="1" fill-rule="nonzero"/></g><g clip-path="url(#ea3d172bdf)"><path fill="#fcdd05" d="M 61.683594 205.464844 L 61.375 205.46875 C 60.742188 205.480469 60.125 205.398438 59.515625 205.226562 C 58.910156 205.054688 58.339844 204.796875 57.804688 204.460938 C 57.273438 204.121094 56.800781 203.714844 56.386719 203.238281 C 55.972656 202.761719 55.632812 202.234375 55.375 201.660156 C 55.113281 201.085938 54.941406 200.484375 54.855469 199.859375 C 54.769531 199.234375 54.773438 198.609375 54.871094 197.984375 C 54.96875 197.363281 55.152344 196.765625 55.421875 196.195312 C 55.695312 195.625 56.039062 195.105469 56.464844 194.636719 L 65.285156 184.847656 C 65.5625 184.542969 65.804688 184.214844 66.019531 183.863281 C 66.230469 183.507812 66.410156 183.140625 66.550781 182.753906 C 66.695312 182.367188 66.800781 181.96875 66.867188 181.5625 C 66.933594 181.15625 66.960938 180.75 66.953125 180.335938 C 66.941406 179.925781 66.890625 179.515625 66.804688 179.113281 C 66.714844 178.710938 66.589844 178.320312 66.425781 177.945312 C 66.265625 177.566406 66.066406 177.207031 65.835938 176.863281 C 65.605469 176.523438 65.34375 176.207031 65.054688 175.914062 L 57.34375 168.207031 C 53.289062 164.152344 56.097656 157.21875 61.828125 157.128906 C 62.675781 157.117188 63.492188 157.261719 64.28125 157.566406 C 65.070312 157.875 65.769531 158.316406 66.386719 158.898438 L 84.503906 176.003906 C 84.820312 176.304688 85.101562 176.628906 85.351562 176.988281 C 85.605469 177.34375 85.816406 177.71875 85.992188 178.117188 C 86.167969 178.519531 86.300781 178.929688 86.390625 179.355469 C 86.484375 179.78125 86.53125 180.210938 86.535156 180.648438 C 86.542969 181.082031 86.503906 181.515625 86.421875 181.941406 C 86.339844 182.371094 86.214844 182.785156 86.050781 183.1875 C 85.886719 183.589844 85.679688 183.972656 85.4375 184.335938 C 85.195312 184.695312 84.921875 185.03125 84.609375 185.335938 L 66.15625 203.589844 C 65.558594 204.179688 64.875 204.636719 64.101562 204.960938 C 63.328125 205.285156 62.523438 205.453125 61.683594 205.464844 Z M 61.683594 205.464844 " fill-opacity="1" fill-rule="nonzero"/></g><g fill="#fcdd05" fill-opacity="1"><g transform="translate(93.776278, 205.31127)"><g><path d="M 4.890625 -15.6875 C 5.703125 -15.039062 7.101562 -14.160156 9.09375 -13.046875 C 11.082031 -11.929688 12.988281 -11.375 14.8125 -11.375 C 16.632812 -11.375 17.546875 -12.082031 17.546875 -13.5 C 17.546875 -14.132812 17.285156 -14.695312 16.765625 -15.1875 C 16.253906 -15.6875 15.3125 -16.253906 13.9375 -16.890625 C 12.570312 -17.535156 11.546875 -18.039062 10.859375 -18.40625 C 10.171875 -18.769531 9.257812 -19.367188 8.125 -20.203125 C 6.988281 -21.046875 6.125 -21.914062 5.53125 -22.8125 C 3.8125 -25.257812 2.953125 -28.363281 2.953125 -32.125 C 2.953125 -35.894531 4.351562 -39.078125 7.15625 -41.671875 C 9.96875 -44.265625 13.644531 -45.5625 18.1875 -45.5625 C 21.269531 -45.5625 24.117188 -45.226562 26.734375 -44.5625 C 29.347656 -43.90625 30.695312 -43.039062 30.78125 -41.96875 C 30.78125 -41.832031 30.78125 -41.703125 30.78125 -41.578125 C 30.78125 -40.078125 30.304688 -38.179688 29.359375 -35.890625 C 28.421875 -33.597656 27.757812 -32.320312 27.375 -32.0625 C 24.632812 -33.476562 22.179688 -34.1875 20.015625 -34.1875 C 17.847656 -34.1875 16.765625 -33.414062 16.765625 -31.875 C 16.765625 -30.9375 17.5625 -30.101562 19.15625 -29.375 C 19.5 -29.195312 19.988281 -28.957031 20.625 -28.65625 C 21.269531 -28.363281 22.007812 -28.007812 22.84375 -27.59375 C 23.675781 -27.1875 24.570312 -26.671875 25.53125 -26.046875 C 26.5 -25.429688 27.539062 -24.609375 28.65625 -23.578125 C 30.925781 -21.441406 32.0625 -18.617188 32.0625 -15.109375 C 32.0625 -10.515625 30.796875 -6.757812 28.265625 -3.84375 C 25.742188 -0.9375 21.847656 0.554688 16.578125 0.640625 C 14.003906 0.640625 11.675781 0.425781 9.59375 0 C 7.519531 -0.425781 5.710938 -1.257812 4.171875 -2.5 C 2.628906 -3.75 1.859375 -5.25 1.859375 -7 C 1.859375 -8.757812 2.179688 -10.503906 2.828125 -12.234375 C 3.472656 -13.972656 4.160156 -15.125 4.890625 -15.6875 Z M 4.890625 -15.6875 "/></g></g></g><g fill="#fcdd05" fill-opacity="1"><g transform="translate(130.664841, 205.31127)"><g><path d="M 33.421875 0.125 C 29.691406 0.125 27.675781 -0.472656 27.375 -1.671875 L 25.25 -9.96875 L 15.03125 -9.96875 L 13.171875 -2 C 12.910156 -0.664062 10.851562 0 7 0 C 4.945312 0 3.425781 -0.113281 2.4375 -0.34375 C 1.457031 -0.582031 0.96875 -0.769531 0.96875 -0.90625 L 12.34375 -44.40625 C 12.34375 -44.75 15.273438 -44.921875 21.140625 -44.921875 C 27.015625 -44.921875 29.953125 -44.75 29.953125 -44.40625 L 41.0625 -0.828125 C 41.0625 -0.535156 40.078125 -0.300781 38.109375 -0.125 C 36.140625 0.0390625 34.578125 0.125 33.421875 0.125 Z M 16.640625 -18.125 L 23.390625 -18.125 L 20.5 -31.421875 L 20.109375 -31.421875 Z M 16.640625 -18.125 "/></g></g></g><g fill="#fcdd05" fill-opacity="1"><g transform="translate(175.522324, 205.31127)"><g><path d="M 15.484375 -0.90625 C 15.484375 -0.21875 13.445312 0.125 9.375 0.125 C 5.269531 0.125 3.21875 -0.191406 3.21875 -0.828125 L 3.21875 -42.734375 C 3.21875 -44.234375 4.007812 -44.984375 5.59375 -44.984375 L 17.859375 -44.984375 C 29.128906 -44.984375 34.765625 -40.59375 34.765625 -31.8125 C 34.765625 -29.15625 34.25 -26.742188 33.21875 -24.578125 C 32.195312 -22.421875 30.742188 -20.695312 28.859375 -19.40625 L 36.953125 -5.90625 C 36.609375 -4.882812 35.492188 -3.707031 33.609375 -2.375 C 31.035156 -0.53125 28.914062 0.390625 27.25 0.390625 C 25.582031 0.390625 24.335938 -0.207031 23.515625 -1.40625 L 17.484375 -15.484375 L 15.484375 -15.484375 Z M 15.484375 -33.609375 L 15.484375 -23.96875 L 15.8125 -23.96875 C 19.882812 -23.96875 21.921875 -25.660156 21.921875 -29.046875 C 21.921875 -30.585938 21.519531 -31.734375 20.71875 -32.484375 C 19.925781 -33.234375 18.632812 -33.609375 16.84375 -33.609375 Z M 15.484375 -33.609375 "/></g></g></g><g fill="#fcdd05" fill-opacity="1"><g transform="translate(216.202555, 205.31127)"><g><path d="M 22.5625 -1.03125 C 22.5625 -0.175781 20.4375 0.25 16.1875 0.25 C 11.945312 0.25 9.828125 -0.175781 9.828125 -1.03125 L 9.828125 -33.296875 L 2.125 -33.296875 C 1.394531 -33.296875 0.878906 -34.28125 0.578125 -36.25 C 0.453125 -37.1875 0.390625 -38.144531 0.390625 -39.125 C 0.390625 -40.113281 0.453125 -41.082031 0.578125 -42.03125 C 0.878906 -44 1.394531 -44.984375 2.125 -44.984375 L 30.078125 -44.984375 C 30.804688 -44.984375 31.320312 -44 31.625 -42.03125 C 31.75 -41.082031 31.8125 -40.113281 31.8125 -39.125 C 31.8125 -38.144531 31.75 -37.1875 31.625 -36.25 C 31.320312 -34.28125 30.804688 -33.296875 30.078125 -33.296875 L 22.5625 -33.296875 Z M 22.5625 -1.03125 "/></g></g></g><g fill="#fcdd05" fill-opacity="1"><g transform="translate(251.227413, 205.31127)"><g><path d="M 22.5625 -1.03125 C 22.5625 -0.175781 20.4375 0.25 16.1875 0.25 C 11.945312 0.25 9.828125 -0.175781 9.828125 -1.03125 L 9.828125 -33.296875 L 2.125 -33.296875 C 1.394531 -33.296875 0.878906 -34.28125 0.578125 -36.25 C 0.453125 -37.1875 0.390625 -38.144531 0.390625 -39.125 C 0.390625 -40.113281 0.453125 -41.082031 0.578125 -42.03125 C 0.878906 -44 1.394531 -44.984375 2.125 -44.984375 L 30.078125 -44.984375 C 30.804688 -44.984375 31.320312 -44 31.625 -42.03125 C 31.75 -41.082031 31.8125 -40.113281 31.8125 -39.125 C 31.8125 -38.144531 31.75 -37.1875 31.625 -36.25 C 31.320312 -34.28125 30.804688 -33.296875 30.078125 -33.296875 L 22.5625 -33.296875 Z M 22.5625 -1.03125 "/></g></g></g><g fill="#fcdd05" fill-opacity="1"><g transform="translate(286.252271, 205.31127)"><g><path d="M 38.171875 -1.09375 C 38.171875 -0.363281 36.003906 0 31.671875 0 C 27.347656 0 25.1875 -0.363281 25.1875 -1.09375 L 25.1875 -15.875 L 16.1875 -15.875 L 16.1875 -1.09375 C 16.1875 -0.363281 14.023438 0 9.703125 0 C 5.378906 0 3.21875 -0.363281 3.21875 -1.09375 L 3.21875 -43.703125 C 3.21875 -44.597656 5.378906 -45.046875 9.703125 -45.046875 C 14.023438 -45.046875 16.1875 -44.597656 16.1875 -43.703125 L 16.1875 -28.59375 L 25.1875 -28.59375 L 25.1875 -43.578125 C 25.1875 -44.171875 26.257812 -44.597656 28.40625 -44.859375 C 29.519531 -44.941406 30.613281 -44.984375 31.6875 -44.984375 L 34.953125 -44.859375 C 37.097656 -44.597656 38.171875 -44.171875 38.171875 -43.578125 Z M 38.171875 -1.09375 "/></g></g></g><g fill="#fcdd05" fill-opacity="1"><g transform="translate(330.402819, 205.31127)"><g><path d="M 7.453125 -11.046875 L 7.453125 -33.9375 L 2.890625 -33.9375 C 2.160156 -33.9375 1.644531 -34.859375 1.34375 -36.703125 C 1.21875 -37.597656 1.15625 -38.515625 1.15625 -39.453125 C 1.15625 -40.398438 1.21875 -41.320312 1.34375 -42.21875 C 1.644531 -44.0625 2.160156 -44.984375 2.890625 -44.984375 L 24.484375 -44.984375 C 25.210938 -44.984375 25.707031 -44.0625 25.96875 -42.21875 C 26.132812 -41.320312 26.21875 -40.398438 26.21875 -39.453125 C 26.21875 -38.515625 26.132812 -37.597656 25.96875 -36.703125 C 25.707031 -34.859375 25.210938 -33.9375 24.484375 -33.9375 L 20.171875 -33.9375 L 20.171875 -11.046875 L 24.671875 -11.046875 C 25.398438 -11.046875 25.914062 -10.128906 26.21875 -8.296875 C 26.394531 -7.390625 26.484375 -6.460938 26.484375 -5.515625 C 26.484375 -4.578125 26.394531 -3.660156 26.21875 -2.765625 C 25.914062 -0.921875 25.398438 0 24.671875 0 L 3.015625 0 C 2.285156 0 1.796875 -0.921875 1.546875 -2.765625 C 1.367188 -3.660156 1.28125 -4.578125 1.28125 -5.515625 C 1.28125 -6.460938 1.367188 -7.390625 1.546875 -8.296875 C 1.796875 -10.128906 2.285156 -11.046875 3.015625 -11.046875 Z M 7.453125 -11.046875 "/></g></g></g></svg>
